<svg viewBox="0 0 36 36" fill="none" xmlns="http://www.w3.org/2000/svg">
    <path fill="#EBEBEF" fill-rule="evenodd" clip-rule="evenodd" d="M3.7098 0.0484009C3.7098 0.0484009 24.3136 10.2051 30.6943 13.3507C33.1755 14.5738 32.555 16.0454 32.555 15.8589C32.555 16.8858 32.555 18.2314 32.555 19.3367C32.555 19.6002 33.1695 21.0751 30.712 22.2864C24.3516 25.4219 3.7098 35.5975 3.7098 35.5975C3.7098 35.5975 3.70501 32.2823 3.71429 30.1338C3.69963 30.101 3.23422 28.5805 5.32031 27.5592C10.3027 25.12 25.3438 17.823 25.3438 17.823C25.3438 17.823 10.2003 10.2464 5.27003 7.78515C3.25248 6.77804 3.69963 5.21676 3.71369 5.27371C3.70531 3.20784 3.7098 0.0484009 3.7098 0.0484009Z" ></path>
    <path fill="#5F35AE" fill-rule="evenodd" clip-rule="evenodd" d="M0.0500489 24.5803C0.0500489 24.5803 0.0500489 21.536 0.0500489 19.4922C0.0940454 19.4365 -0.576377 18.0525 1.92933 16.8259C9.52007 13.1105 36.1751 0 36.1751 0C36.1751 0 36.1751 2.97797 36.1751 5.08987C36.1508 5.21675 36.8194 6.83734 34.2413 8.08141C26.7496 11.6965 0.0500489 24.5803 0.0500489 24.5803Z"></path>
</svg>